{
  "asset": {
    "generator": "glTF Tools for Unity",
    "version": "2.0"
  },
  "buffers": [
    {
      "uri": "data:application/octet-stream;base64,",
      "byteLength": 447264
    }
  ],
  "bufferViews": [
    {
      "buffer": 0,
      "byteOffset": 0,
      "byteLength": 319440,
      "byteStride": 48,
      "target": 34962
    },
    {
      "buffer": 0,
      "byteOffset": 319440,
      "byteLength": 127824,
      "target": 34963
    }
  ],
  "accessors": [
    {
      "bufferView": 0,
      "byteOffset": 0,
      "componentType": 5126,
      "normalized": false,
      "count": 0,
      "min": [
        0.051289062947034836,
        0.08307254314422607
      ],
      "max": [
        0.051289062947034836,
        0.08307254314422607
      ],
      "type": "VEC2"
    },
    {
      "bufferView": 0,
      "byteOffset": 8,
      "componentType": 5126,
      "normalized": false,
      "count": 0,
      "min": [
        0.8897678852081299,
        0.45568591356277466,
        0.025758730247616768
      ],
      "max": [
        0.8897678852081299,
        0.45568591356277466,
        0.025758730247616768
      ],
      "type": "VEC3"
    },
    {
      "bufferView": 0,
      "byteOffset": 20,
      "componentType": 5126,
      "normalized": false,
      "count": 0,
      "min": [
        -0.4557378590106964,
        0.890104353427887,
        -0.004156788345426321,
        1
      ],
      "max": [
        -0.4557378590106964,
        0.890104353427887,
        -0.004156788345426321,
        1
      ],
      "type": "VEC4"
    },
    {
      "bufferView": 0,
      "byteOffset": 36,
      "componentType": 5126,
      "normalized": false,
      "count": 0,
      "min": [
        -0.0007550178561359644,
        0.020196354016661644,
        -0.0006684658583253622
      ],
      "max": [
        -0.0007550178561359644,
        0.020196354016661644,
        -0.0006684658583253622
      ],
      "type": "VEC3"
    },
    {
      "bufferView": 1,
      "byteOffset": 0,
      "componentType": 5125,
      "normalized": false,
      "count": 31956,
      "min": [
        0
      ],
      "max": [
        6654
      ],
      "type": "SCALAR"
    }
  ],
  "scene": 0,
  "scenes": [
    {
      "nodes": [
        0
      ]
    }
  ],
  "nodes": [
    {
      "mesh": 0
    }
  ],
  "meshes": [
    {
      "primitives": [
        {
          "material": 0,
          "mode": 4,
          "attributes": {
            "TEXCOORD_0": 0,
            "NORMAL": 1,
            "TANGENT": 2,
            "POSITION": 3
          },
          "indices": 4
        }
      ]
    }
  ],
  "materials": [
    {
      "name": "M_Coordinates",
      "pbrMetallicRoughness": {
        "baseColorFactor": [
          1,
          1,
          1,
          1
        ],
        "metallicFactor": 0,
        "roughnessFactor": 0.735,
        "baseColorTexture": {
          "index": 0,
          "texCoord": 0
        }
      },
      "emissiveFactor": [
        0,
        0,
        0
      ],
      "alphaMode": "OPAQUE",
      "doubleSided": false
    }
  ],
  "textures": [
    {
      "sampler": 0,
      "name": "BoomBoxWithAxes_baseColor1.png",
      "source": 0
    }
  ],
  "samplers": [
    {
      "magFilter": 9729,
      "minFilter": 9987,
      "wrapS": 10497,
      "wrapT": 10497
    }
  ],
  "images": [
    {
      "uri": "data:image/png;base64,",
      "mimeType": "image/png"
    }
  ]
}