{
  "asset": {
    "generator": "glTF Tools for Unity",
    "version": "2.0"
  },
  "buffers": [
    {
      "uri": "data:application/octet-stream;base64,",
      "byteLength": 48840
    },
    {
      "uri": "data:application/octet-stream;base64,",
      "byteLength": 130224
    },
    {
      "uri": "data:application/octet-stream;base64,",
      "byteLength": 105312
    },
    {
      "uri": "data:application/octet-stream;base64,",
      "byteLength": 98976
    }
  ],
  "bufferViews": [
    {
      "buffer": 0,
      "byteOffset": 0,
      "byteLength": 7000,
      "byteStride": 8,
      "target": 34962
    },
    {
      "buffer": 0,
      "byteOffset": 7000,
      "byteLength": 10500,
      "byteStride": 12,
      "target": 34962
    },
    {
      "buffer": 0,
      "byteOffset": 17500,
      "byteLength": 14000,
      "byteStride": 16,
      "target": 34962
    },
    {
      "buffer": 0,
      "byteOffset": 31500,
      "byteLength": 10500,
      "byteStride": 12,
      "target": 34962
    },
    {
      "buffer": 0,
      "byteOffset": 42000,
      "byteLength": 6840,
      "target": 34963
    },
    {
      "buffer": 1,
      "byteOffset": 0,
      "byteLength": 18016,
      "byteStride": 8,
      "target": 34962
    },
    {
      "buffer": 1,
      "byteOffset": 18016,
      "byteLength": 27024,
      "byteStride": 12,
      "target": 34962
    },
    {
      "buffer": 1,
      "byteOffset": 45040,
      "byteLength": 36032,
      "byteStride": 16,
      "target": 34962
    },
    {
      "buffer": 1,
      "byteOffset": 81072,
      "byteLength": 27024,
      "byteStride": 12,
      "target": 34962
    },
    {
      "buffer": 1,
      "byteOffset": 108096,
      "byteLength": 22128,
      "target": 34963
    },
    {
      "buffer": 2,
      "byteOffset": 0,
      "byteLength": 14560,
      "byteStride": 8,
      "target": 34962
    },
    {
      "buffer": 2,
      "byteOffset": 14560,
      "byteLength": 21840,
      "byteStride": 12,
      "target": 34962
    },
    {
      "buffer": 2,
      "byteOffset": 36400,
      "byteLength": 29120,
      "byteStride": 16,
      "target": 34962
    },
    {
      "buffer": 2,
      "byteOffset": 65520,
      "byteLength": 21840,
      "byteStride": 12,
      "target": 34962
    },
    {
      "buffer": 2,
      "byteOffset": 87360,
      "byteLength": 17952,
      "target": 34963
    },
    {
      "buffer": 3,
      "byteOffset": 0,
      "byteLength": 13664,
      "byteStride": 8,
      "target": 34962
    },
    {
      "buffer": 3,
      "byteOffset": 13664,
      "byteLength": 20496,
      "byteStride": 12,
      "target": 34962
    },
    {
      "buffer": 3,
      "byteOffset": 34160,
      "byteLength": 27328,
      "byteStride": 16,
      "target": 34962
    },
    {
      "buffer": 3,
      "byteOffset": 61488,
      "byteLength": 20496,
      "byteStride": 12,
      "target": 34962
    },
    {
      "buffer": 3,
      "byteOffset": 81984,
      "byteLength": 16992,
      "target": 34963
    }
  ],
  "accessors": [
    {
      "bufferView": 0,
      "byteOffset": 0,
      "componentType": 5126,
      "normalized": false,
      "count": 875,
      "min": [
        0.050296854227781296,
        0.059945881366729736
      ],
      "max": [
        0.9313238263130188,
        0.9455453157424927
      ],
      "type": "VEC2"
    },
    {
      "bufferView": 1,
      "byteOffset": 0,
      "componentType": 5126,
      "normalized": false,
      "count": 875,
      "min": [
        -1,
        -0.99989914894104,
        -1
      ],
      "max": [
        0.99989914894104,
        1,
        0.99989914894104
      ],
      "type": "VEC3"
    },
    {
      "bufferView": 2,
      "byteOffset": 0,
      "componentType": 5126,
      "normalized": false,
      "count": 875,
      "min": [
        -1,
        -0.9999990463256836,
        -0.9999916553497314,
        -1
      ],
      "max": [
        0.9999990463256836,
        0.9999990463256836,
        1,
        1
      ],
      "type": "VEC4"
    },
    {
      "bufferView": 3,
      "byteOffset": 0,
      "componentType": 5126,
      "normalized": false,
      "count": 875,
      "min": [
        -0.003958637826144695,
        -0.003958638291805983,
        -0.003958637360483408
      ],
      "max": [
        0.003958637826144695,
        0.003958638291805983,
        0.003958637360483408
      ],
      "type": "VEC3"
    },
    {
      "bufferView": 4,
      "byteOffset": 0,
      "componentType": 5123,
      "normalized": false,
      "count": 3420,
      "min": [
        0
      ],
      "max": [
        874
      ],
      "type": "SCALAR"
    },
    {
      "bufferView": 5,
      "byteOffset": 0,
      "componentType": 5126,
      "normalized": false,
      "count": 2252,
      "min": [
        0.565276026725769,
        0.5440099239349365
      ],
      "max": [
        0.9341633319854736,
        0.9507302045822144
      ],
      "type": "VEC2"
    },
    {
      "bufferView": 6,
      "byteOffset": 0,
      "componentType": 5126,
      "normalized": false,
      "count": 2252,
      "min": [
        -1,
        -1,
        -1
      ],
      "max": [
        1,
        1,
        1
      ],
      "type": "VEC3"
    },
    {
      "bufferView": 7,
      "byteOffset": 0,
      "componentType": 5126,
      "normalized": false,
      "count": 2252,
      "min": [
        -1,
        -0.6382021903991699,
        -0.9995532631874084,
        -1
      ],
      "max": [
        1,
        0.6502494215965271,
        0.9995532631874084,
        1
      ],
      "type": "VEC4"
    },
    {
      "bufferView": 8,
      "byteOffset": 0,
      "componentType": 5126,
      "normalized": false,
      "count": 2252,
      "min": [
        -0.03458702936768532,
        -0.023930205032229424,
        -0.003500003833323717
      ],
      "max": [
        0.03458702936768532,
        0.023930205032229424,
        0.003500003833323717
      ],
      "type": "VEC3"
    },
    {
      "bufferView": 9,
      "byteOffset": 0,
      "componentType": 5123,
      "normalized": false,
      "count": 11064,
      "min": [
        0
      ],
      "max": [
        2251
      ],
      "type": "SCALAR"
    },
    {
      "bufferView": 10,
      "byteOffset": 0,
      "componentType": 5126,
      "normalized": false,
      "count": 1820,
      "min": [
        0.07810890674591064,
        0.048795878887176514
      ],
      "max": [
        0.43666142225265503,
        0.4486736059188843
      ],
      "type": "VEC2"
    },
    {
      "bufferView": 11,
      "byteOffset": 0,
      "componentType": 5126,
      "normalized": false,
      "count": 1820,
      "min": [
        -1,
        -1,
        -1
      ],
      "max": [
        1,
        1,
        1
      ],
      "type": "VEC3"
    },
    {
      "bufferView": 12,
      "byteOffset": 0,
      "componentType": 5126,
      "normalized": false,
      "count": 1820,
      "min": [
        -1,
        -0.5825595855712891,
        -0.9995532631874084,
        -1
      ],
      "max": [
        1,
        0.5825608968734741,
        0.9995532631874084,
        1
      ],
      "type": "VEC4"
    },
    {
      "bufferView": 13,
      "byteOffset": 0,
      "componentType": 5126,
      "normalized": false,
      "count": 1820,
      "min": [
        -0.03368258476257324,
        -0.023930219933390617,
        -0.0035000008065253496
      ],
      "max": [
        0.03368259221315384,
        0.023930219933390617,
        0.003500006627291441
      ],
      "type": "VEC3"
    },
    {
      "bufferView": 14,
      "byteOffset": 0,
      "componentType": 5123,
      "normalized": false,
      "count": 8976,
      "min": [
        0
      ],
      "max": [
        1819
      ],
      "type": "SCALAR"
    },
    {
      "bufferView": 15,
      "byteOffset": 0,
      "componentType": 5126,
      "normalized": false,
      "count": 1708,
      "min": [
        0.097211092710495,
        0.528960108757019
      ],
      "max": [
        0.4243307113647461,
        0.9654766321182251
      ],
      "type": "VEC2"
    },
    {
      "bufferView": 16,
      "byteOffset": 0,
      "componentType": 5126,
      "normalized": false,
      "count": 1708,
      "min": [
        -1,
        -1,
        -1
      ],
      "max": [
        1,
        1,
        1
      ],
      "type": "VEC3"
    },
    {
      "bufferView": 17,
      "byteOffset": 0,
      "componentType": 5126,
      "normalized": false,
      "count": 1708,
      "min": [
        -1,
        -0.582563042640686,
        -0.9995532631874084,
        -1
      ],
      "max": [
        1,
        0.9747101664543152,
        0.9995532631874084,
        1
      ],
      "type": "VEC4"
    },
    {
      "bufferView": 18,
      "byteOffset": 0,
      "componentType": 5126,
      "normalized": false,
      "count": 1708,
      "min": [
        -0.03192055970430374,
        -0.023930229246616364,
        -0.0035000008065253496
      ],
      "max": [
        0.03192058950662613,
        0.023930201306939125,
        0.003500006627291441
      ],
      "type": "VEC3"
    },
    {
      "bufferView": 19,
      "byteOffset": 0,
      "componentType": 5123,
      "normalized": false,
      "count": 8496,
      "min": [
        0
      ],
      "max": [
        1707
      ],
      "type": "SCALAR"
    }
  ],
  "scene": 0,
  "scenes": [
    {
      "nodes": [
        4
      ],
      "name": "BoomBoxWithAxes"
    }
  ],
  "nodes": [
    {
      "name": "CoordinateSystem",
      "translation": [
        -0.003199740080162883,
        0.01753392443060875,
        -0.0031997396145015955
      ],
      "rotation": [
        0,
        0,
        0,
        1
      ],
      "scale": [
        1,
        1,
        1
      ],
      "mesh": 0
    },
    {
      "name": "X_axis",
      "translation": [
        -0.010767878964543343,
        0.014332682825624943,
        -0.000005500019597093342
      ],
      "rotation": [
        0,
        0,
        0,
        1
      ],
      "scale": [
        0.05999999865889549,
        0.05999999865889549,
        0.05999999865889549
      ],
      "mesh": 1
    },
    {
      "name": "Y_axis",
      "translation": [
        0.0007127809221856296,
        0.024210168048739433,
        2.217292802697557e-7
      ],
      "rotation": [
        0,
        0,
        0,
        1
      ],
      "scale": [
        0.05999999865889549,
        0.05999999865889549,
        0.05999999865889549
      ],
      "mesh": 2
    },
    {
      "name": "Z_axis",
      "translation": [
        0.0008754920563660562,
        0.014333982020616531,
        -0.00931331142783165
      ],
      "rotation": [
        0,
        0,
        0,
        1
      ],
      "scale": [
        0.05999999865889549,
        0.05999999865889549,
        0.05999999865889549
      ],
      "mesh": 3
    },
    {
      "name": "BoomBox_Coordinates",
      "children": [
        0,
        1,
        2,
        3
      ]
    }
  ],
  "meshes": [
    {
      "primitives": [
        {
          "material": 0,
          "mode": 4,
          "attributes": {
            "TEXCOORD_0": 0,
            "NORMAL": 1,
            "TANGENT": 2,
            "POSITION": 3
          },
          "indices": 4
        }
      ]
    },
    {
      "primitives": [
        {
          "material": 1,
          "mode": 4,
          "attributes": {
            "TEXCOORD_0": 5,
            "NORMAL": 6,
            "TANGENT": 7,
            "POSITION": 8
          },
          "indices": 9
        }
      ]
    },
    {
      "primitives": [
        {
          "material": 1,
          "mode": 4,
          "attributes": {
            "TEXCOORD_0": 10,
            "NORMAL": 11,
            "TANGENT": 12,
            "POSITION": 13
          },
          "indices": 14
        }
      ]
    },
    {
      "primitives": [
        {
          "material": 1,
          "mode": 4,
          "attributes": {
            "TEXCOORD_0": 15,
            "NORMAL": 16,
            "TANGENT": 17,
            "POSITION": 18
          },
          "indices": 19
        }
      ]
    }
  ],
  "materials": [
    {
      "name": "M_Coordinates",
      "pbrMetallicRoughness": {
        "baseColorFactor": [
          1,
          1,
          1,
          1
        ],
        "metallicFactor": 0,
        "roughnessFactor": 0.735,
        "baseColorTexture": {
          "index": 0,
          "texCoord": 0
        }
      },
      "emissiveFactor": [
        0,
        0,
        0
      ],
      "alphaMode": "OPAQUE",
      "doubleSided": false
    },
    {
      "name": "M_Coordinates",
      "pbrMetallicRoughness": {
        "baseColorFactor": [
          1,
          1,
          1,
          1
        ],
        "metallicFactor": 0,
        "roughnessFactor": 0.735,
        "baseColorTexture": {
          "index": 1,
          "texCoord": 0
        }
      },
      "emissiveFactor": [
        0,
        0,
        0
      ],
      "alphaMode": "OPAQUE",
      "doubleSided": false
    }
  ],
  "textures": [
    {
      "sampler": 0,
      "name": "BoomBoxWithAxes_baseColor1.png",
      "source": 0
    },
    {
      "sampler": 1,
      "name": "BoomBoxWithAxes_baseColor1.png",
      "source": 0
    }
  ],
  "samplers": [
    {
      "magFilter": 9729,
      "minFilter": 9987,
      "wrapS": 10497,
      "wrapT": 10497
    },
    {
      "magFilter": 9729,
      "minFilter": 9987,
      "wrapS": 10497,
      "wrapT": 10497
    }
  ],
  "images": [
    {
      "uri": "data:image/png;base64,",
      "mimeType": "image/png"
    }
  ]
}