<?xml version="1.0" encoding="UTF-8"?>
<svg width="800px" height="800px" version="1.1" viewBox="0 0 512 512" xml:space="preserve" xmlns="http://www.w3.org/2000/svg">
<path d="m512 306.09v11.13c0 9.22-7.475 16.696-16.696 16.696h-478.61c-9.221 0-16.696-7.475-16.696-16.696v-11.13c0-9.22 7.475-16.696 16.696-16.696h478.61c9.22 0 16.695 7.475 16.695 16.696zm-310.96-153.76 110.88-9.7-2.911-33.264c-1.072-12.247-11.868-21.307-24.116-20.236l-66.529 5.82c-12.248 1.072-21.307 11.868-20.236 24.116l2.911 33.264z" fill="#5B7A7F"/>
<path d="m442.77 280.48-11.795 117.95c-4.552 45.519-42.855 80.184-88.602 80.184h-172.75c-45.746 0-84.049-34.665-88.602-80.184l-11.795-117.95c-1.31-13.105 8.98-24.476 22.151-24.476h329.24c13.171 0 23.461 11.371 22.151 24.476z" fill="#769CA5"/>
<path d="m442.77 280.48-11.795 117.95c-4.552 45.519-42.855 80.184-88.602 80.184h-70.238c-45.746 0-84.049-34.665-88.602-80.184l-11.795-117.95c-1.31-13.105 8.98-24.476 22.151-24.476h226.73c13.172 0 23.462 11.371 22.152 24.476zm14.755-133.82c-1.339-15.31-14.836-26.635-30.146-25.295l-343.73 30.072c-15.31 1.34-26.634 14.836-25.295 30.146 1.339 15.309 14.836 26.634 30.145 25.295l343.73-30.072c15.309-1.34 26.633-14.837 25.294-30.146z" fill="#90B5BF"/>
<path d="m457.52 146.65c1.339 15.31-9.985 28.806-25.295 30.146l-343.73 30.072c-15.31 1.339-28.806-9.985-30.146-25.295-0.536-6.136 0.965-11.979 3.938-16.867 5.328 8.755 15.305 14.226 26.208 13.272l343.73-30.072c9.174-0.802 16.912-5.973 21.357-13.279 2.155 3.541 3.553 7.614 3.938 12.023z" fill="#769CA5"/>
<path d="m367.3 244.87c6.147 0 11.13 4.983 11.13 11.13v89.043c0 12.564-10.408 22.697-23.072 22.246-12.063-0.429-21.449-10.71-21.449-22.78v-13.599c-3.861 2.236-8.44 3.37-13.325 2.895-11.484-1.118-20.066-11.122-20.066-22.66v-55.145c0-6.147 4.983-11.13 11.13-11.13h55.652z" fill="#FFA233"/>
<path d="m356.17 311.65c-12.295 0-22.261-9.966-22.261-22.261v-44.521h33.391c6.147 0 11.13 4.983 11.13 11.13v33.391c1e-3 12.295-9.965 22.261-22.26 22.261z" fill="#FFC248"/>
<path d="m464.7 503.65c0 4.61-3.738 8.348-8.348 8.348h-411.83c-4.61 0-8.348-3.738-8.348-8.348s3.738-8.348 8.348-8.348h411.83c4.61 0 8.348 3.738 8.348 8.348z" fill="#5B7A7F"/>
<path d="m364.52 8.348v77.913c0 4.61-3.736 8.348-8.348 8.348-4.611 0-8.348-3.738-8.348-8.348v-77.913c0-4.61 3.736-8.348 8.348-8.348 4.611 0 8.348 3.738 8.348 8.348zm25.043-8.348c-4.611 0-8.348 3.738-8.348 8.348v77.913c0 4.61 3.736 8.348 8.348 8.348 4.611 0 8.348-3.738 8.348-8.348v-77.913c0-4.61-3.736-8.348-8.348-8.348z" fill="#FFC248"/>
</svg>