<?xml version="1.0" encoding="UTF-8"?>
<svg version="1.1" viewBox="0 0 511.99 511.99" xml:space="preserve" xmlns="http://www.w3.org/2000/svg">
<path d="m416.84 0h-320.15c-23.562 0-42.655 19.109-42.655 42.671v198.31c0 23.562 19.093 42.671 42.655 42.671h320.15c23.562 0 42.671-19.109 42.671-42.671v-198.31c0-23.561-19.109-42.671-42.671-42.671zm21.344 240.98c0 11.766-9.578 21.343-21.344 21.343h-320.15c-11.75 0-21.328-9.578-21.328-21.343v-198.31c0-11.765 9.578-21.327 21.328-21.327h320.15c11.766 0 21.344 9.562 21.344 21.327v198.31z" fill="#F6BB42"/>
<path d="m119.8 230.78c-6.312 31.484-23.484 30.406-44.108 26.265-20.625-4.125-36.905-9.734-30.593-41.218s32.796-76.92 53.42-72.795c20.624 4.14 27.578 56.264 21.281 87.748z" fill="#E6E9ED"/>
<path d="m171.23 168.73c-4.312 21.562-38.687 18.5-80.201 10.187-41.5-8.312-74.405-18.718-70.092-40.28 4.312-21.562 44.233-46.108 85.732-37.796s68.889 46.327 64.561 67.889z" fill="#FC6E51"/>
<g opacity=".1">
	<path d="m106.67 100.84c-9.406-1.875-18.718-2.078-27.562-1 2.078 0.25 4.156 0.578 6.234 1 41.499 8.312 68.874 46.327 64.561 67.889-1.938 9.703-9.969 14.421-22 15.921 23.546 2.016 40.39-1.25 43.327-15.921 4.329-21.562-23.061-59.576-64.56-67.889z" fill="#fff"/>
</g>
<path d="m341.51 187.61c30.843 22.828 20.656 41.249 5.344 61.937-15.312 20.687-29.938 35.812-60.796 12.984-30.843-22.828-66.217-74.967-50.905-95.654 15.312-20.688 75.513-2.095 106.36 20.733z" fill="#CCD1D9"/>
<path d="m301.21 99.561c21.125 15.625-0.25 52.03-31.061 93.654-30.796 41.624-59.374 72.702-80.499 57.062-21.125-15.625-26.796-72.062 4.016-113.67 30.812-41.624 86.42-52.687 107.54-37.046z" fill="#965353"/>
<g opacity=".1">
	<path d="m301.21 99.561c-8.14-6.031-21.421-8.094-36.436-5.953 5.984 1.031 11.155 3.016 15.108 5.953 21.124 15.625-0.266 52.03-31.061 93.654-20.531 27.733-40.062 50.78-57.062 58.452 20.89 12.187 48.593-18.203 78.389-58.452 30.812-41.624 52.187-78.029 31.062-93.654z" fill="#fff"/>
</g>
<path d="m403.34 236.98c-16.999 39.937-36.655 34.968-59.373 25.281-22.719-9.671-39.922-20.406-22.906-60.327 17.016-39.937 61.796-93.967 84.514-84.28 22.718 9.672 14.78 79.389-2.235 119.33z" fill="#E6E9ED"/>
<path d="m482.24 166.36c-11.64 27.343-50.686 16.218-96.403-3.25-45.718-19.484-80.796-39.921-69.14-67.265 11.641-27.343 65.608-51.233 111.33-31.765 45.718 19.469 65.873 74.937 54.217 102.28z" fill="#ED5564"/>
<g opacity=".2">
	<path d="m428.02 64.078c-15.172-6.469-31.266-8.141-46.405-6.516 8.421 0.938 16.874 3.031 25.077 6.516 45.703 19.468 65.858 74.936 54.218 102.28-3.671 8.625-10.077 13.421-18.546 15.343 19.155 3.016 33.546-0.484 39.873-15.343 11.656-27.344-8.499-82.812-54.217-102.28z" fill="#fff"/>
</g>
<path d="m491.43 447.99c0 35.344-28.655 63.998-63.998 63.998h-341.32c-35.343 0-63.999-28.654-63.999-63.998v-256h469.32v256h1e-3z" fill="#FFCE54"/>
<g fill="#F6BB42">
	<path d="m452.87 462.02 38.561-38.562v-43.561l-38.561-38.562 38.561-38.561v-43.562l-21.718-21.719-15.077 15.094 28.404 28.406-45.248 45.248-45.266-45.248 27.812-27.812-15.094-15.078-27.796 27.796-28.03-28.031-15.094 15.094 28.032 28.031-45.25 45.248-45.248-45.248 28.264-28.265-15.093-15.078-28.264 28.25-27.797-27.796-15.078 15.078 27.797 27.811-45.249 45.248-45.265-45.248 27.812-27.812-15.094-15.078-27.795 27.796-28.125-28.109-15.078 15.078 28.109 28.125-45.249 45.248-45.249-45.248 28.265-28.265-15.093-15.078-21.562 21.562v43.562l38.562 38.561-38.562 38.562v43.561l38.562 38.562-25.171 25.156c4.391 5.656 9.688 10.562 15.703 14.467l24.546-24.561 34.906 34.904h50.874l34.906-34.889 34.89 34.889h50.874l34.905-34.904 34.906 34.904h50.873l34.906-34.904 24.546 24.561c6-3.904 11.312-8.811 15.703-14.467l-25.173-25.156zm-75.421-165.93 45.249 45.248-45.249 45.25-45.249-45.25 45.249-45.248zm-120.68 0 45.263 45.248-45.263 45.25-45.25-45.25 45.25-45.248zm-120.67 0 45.249 45.248-45.249 45.25-45.249-45.25 45.249-45.248zm-60.343 150.84-45.249-45.248 45.249-45.25 45.249 45.25-45.249 45.248zm60.343 60.341-45.249-45.248 45.249-45.266 45.249 45.266-45.249 45.248zm15.077-105.59 45.265-45.25 45.249 45.25-45.249 45.248-45.265-45.248zm105.59 105.59-45.25-45.248 45.25-45.266 45.263 45.266-45.263 45.248zm15.093-105.59 45.248-45.25 45.25 45.25-45.25 45.248-45.248-45.248zm105.59 105.59-45.249-45.248 45.249-45.266 45.249 45.266-45.249 45.248zm15.077-105.59 45.266-45.266 45.248 45.266-45.248 45.248-45.266-45.248z"/>
	<rect x="22.112" y="234.66" width="469.32" height="21.328"/>
	<path d="m63.937 202.67c5.89 0 10.671-4.781 10.671-10.672h-21.343c0 5.891 4.781 10.672 10.672 10.672z"/>
	<path d="m106.78 202.67c5.891 0 10.671-4.781 10.671-10.672h-21.328c0 5.891 4.766 10.672 10.657 10.672z"/>
	<path d="m149.64 202.67c5.891 0 10.671-4.781 10.671-10.672h-21.343c0 5.891 4.781 10.672 10.672 10.672z"/>
	<path d="m192.5 202.67c5.891 0 10.656-4.781 10.656-10.672h-21.328c1e-3 5.891 4.782 10.672 10.672 10.672z"/>
	<path d="m235.34 202.67c5.891 0 10.672-4.781 10.672-10.672h-21.343c0 5.891 4.781 10.672 10.671 10.672z"/>
	<path d="m278.2 202.67c5.891 0 10.656-4.781 10.656-10.672h-21.327c0 5.891 4.781 10.672 10.671 10.672z"/>
	<path d="m321.04 202.67c5.891 0 10.672-4.781 10.672-10.672h-21.328c0 5.891 4.765 10.672 10.656 10.672z"/>
	<path d="m363.9 202.67c5.89 0 10.655-4.781 10.655-10.672h-21.327c0 5.891 4.782 10.672 10.672 10.672z"/>
	<path d="m406.74 202.67c5.891 0 10.672-4.781 10.672-10.672h-21.328c0 5.891 4.765 10.672 10.656 10.672z"/>
	<path d="m449.6 202.67c5.891 0 10.655-4.781 10.655-10.672h-21.327c1e-3 5.891 4.782 10.672 10.672 10.672z"/>
</g>
</svg>