<?xml version="1.0" encoding="iso-8859-1"?>
<!-- Uploaded to: SVG Repo, www.svgrepo.com, Generator: SVG Repo Mixer Tools -->
<!DOCTYPE svg PUBLIC "-//W3C//DTD SVG 1.1//EN" "http://www.w3.org/Graphics/SVG/1.1/DTD/svg11.dtd">
<svg fill="#000000" version="1.1" id="Capa_1" xmlns="http://www.w3.org/2000/svg" xmlns:xlink="http://www.w3.org/1999/xlink" 
	 width="800px" height="800px" viewBox="0 0 45 45" xml:space="preserve">
<g>
	<path d="M39.268,0.732C38.799,0.264,38.163,0,37.5,0h-30C6.119,0,5,1.119,5,2.5v5v3.75h2.583c0.69,0,1.25,0.559,1.25,1.25
		c0,0.689-0.56,1.25-1.25,1.25H5v2.5h2.583c0.69,0,1.25,0.559,1.25,1.25c0,0.689-0.56,1.25-1.25,1.25H5v2.5h2.583
		c0.69,0,1.25,0.559,1.25,1.25c0,0.689-0.56,1.25-1.25,1.25H5v2.5h2.583c0.69,0,1.25,0.559,1.25,1.25c0,0.689-0.56,1.25-1.25,1.25H5
		v2.5h2.583c0.69,0,1.25,0.559,1.25,1.25c0,0.689-0.56,1.25-1.25,1.25H5v3.75c0,1.172,0.813,2.188,1.957,2.441l22.5,4.998
		C29.639,44.98,29.818,45,30,45c0.562,0,1.116-0.189,1.564-0.55c0.59-0.476,0.936-1.192,0.936-1.95V40c1.381,0,2.5-1.119,2.5-2.5V35
		h2.5c1.381,0,2.5-1.119,2.5-2.5v-30C40,1.837,39.736,1.201,39.268,0.732z M24.198,24.079c-0.171,0.099-0.36,0.149-0.55,0.149
		c-0.188,0-0.379-0.052-0.549-0.149c-2.836-1.651-4.586-4.578-4.685-7.831c-0.018-0.592,0.439-1.09,1.032-1.121
		c1.319-0.07,2.517-0.661,3.368-1.665c0.207-0.245,0.512-0.386,0.832-0.386c0.32,0,0.625,0.141,0.83,0.386
		c0.854,1.005,2.049,1.597,3.369,1.665c0.592,0.031,1.051,0.529,1.032,1.122C28.785,19.501,27.035,22.428,24.198,24.079z M37.5,32.5
		H35V30c0-1.381-1.119-2.5-2.5-2.5v-15c0-1.172-0.814-2.187-1.958-2.44l-22.5-4.999C7.861,5.02,7.682,5,7.5,5V2.5h30V32.5z"/>
</g>
</svg>