<?xml version="1.0" encoding="utf-8"?>
<!-- Uploaded to: SVG Repo, www.svgrepo.com, Generator: SVG Repo Mixer Tools -->
<svg fill="#000000" version="1.1" id="Layer_1" xmlns="http://www.w3.org/2000/svg" xmlns:xlink="http://www.w3.org/1999/xlink" 
	 width="800px" height="800px" viewBox="0 0 256 178" enable-background="new 0 0 256 178" xml:space="preserve">
<path d="M2,49.467c0,26.019,21.149,47.168,47.168,47.168s47.168-21.15,47.168-47.168c0-25.981-21.15-47.093-47.168-47.093
	C23.226,2.375,2.076,23.486,2,49.467z M11.319,49.467c0-20.884,16.966-37.848,37.848-37.848s37.849,16.965,37.849,37.848
	S70.051,87.315,49.168,87.315C28.513,87.315,11.547,70.35,11.319,49.467z M25.66,40.261c-0.494,0.951-0.608,2.054-0.38,3.043
	c0.304,0.951,0.989,1.75,1.94,2.244l21.568,10.308c0.608,0.266,1.255,0.457,1.826,0.457c0.533,0,1.103-0.153,1.75-0.457
	c1.255-0.685,2.054-2.016,2.054-3.424V26.605c0-2.283-1.902-3.652-3.728-3.652c-0.951,0-1.75,0.267-2.434,0.875l-0.038,0.038
	c-0.685,0.723-1.065,1.673-1.065,2.739v19.743l-16.699-7.456C28.361,37.827,26.536,38.816,25.66,40.261L25.66,40.261z
	 M201.712,105.533c-7.482-4.885-15.141-8.531-22.918-10.932l1.614-5.792l18.758-2.945l7.081,17.483l-2.343,3.659
	C203.185,106.509,202.454,106.017,201.712,105.533z M173.538,93.164l1.671-6.004l-18.38-14.729L138.121,87.16l1.836,6.036
	c5.344-1.366,10.771-2.048,16.324-2.048C162.074,91.149,167.835,91.825,173.538,93.164z M103.945,113.607l-3.057-3.861
	l-16.547,2.295l-1.877,17.079l3.007,2.532C91.394,125.466,97.474,119.246,103.945,113.607z M134.678,94.78l-1.795-5.748
	L112.968,86.2l-7.863,19.945l3.162,3.838c2.058-1.658,4.159-3.247,6.31-4.751C121.227,100.585,127.897,97.117,134.678,94.78z
	 M224.664,125.24l2.017-1.962l-1.699-15.257l-14.383-1.092l-2.5,3.115C214.85,115.175,220.416,120.592,224.664,125.24z
	 M52.465,137.171c-3.899,1.945-7.425,7.649-7.425,12.302c0,6.266,4.418,11.529,11.403,11.529c9.94,0,17.901-10.396,27.854-20.798
	c20.261-21.175,40.895-43.993,71.984-43.993c33.311,0,57.737,24.005,68.166,36.462c3.712,4.432,8.457,6.584,14.159,6.584
	c0.227,0,0.456-0.003,0.685-0.01l12.933,7.526c1.101,0.641,1.776,1.818,1.776,3.091c0,1.976-1.602,3.578-3.578,3.578l-39.941-0.001
	l4.895,15.667l4.886,6.516h-14.025l-8.529-22.183h-6.39l-6.981,7.455l2.502,8.213l4.887,6.516h-14.025l-6.639-18.295l3.311-3.888
	h-21.998l2.443,3.851l-5.948,11.817l1.018,6.516h-14.994l5.26-14.728l-4.932-7.456h-3.138l-9.345,15.671l1.012,6.513h-15.964
	l9.894-22.184h-1.912c-8.793,0-15.315,4.963-29.31,12.701c-13.014,7.197-18.603,9.482-28.872,9.482
	c-9.294-0.001-19.562-7.249-19.562-19.562C38.029,144.304,47.298,138.231,52.465,137.171z M238.287,144.586
	c0,1.142,0.924,2.066,2.066,2.066c1.069,0,1.938-0.814,2.045-1.855l-3.245-1.888C238.631,143.286,238.287,143.895,238.287,144.586z"
	/>
</svg>