<?xml version="1.0" encoding="iso-8859-1"?>
<!-- Generator: Adobe Illustrator 19.0.1, SVG Export Plug-In . SVG Version: 6.00 Build 0)  -->
<svg version="1.1" id="Layer_1" xmlns="http://www.w3.org/2000/svg" xmlns:xlink="http://www.w3.org/1999/xlink" x="0px" y="0px"
	 viewBox="0 0 256 256" style="enable-background:new 0 0 256 256; background-color: #149ddd;" xml:space="preserve">
<ellipse style="fill:#FFFFFF;" cx="128.25" cy="122.014" rx="90.084" ry="77.293"/>
<g id="Layer_2">
	<g>
		<path d="M128.207,21.088c58.335,0,106.042,47.757,106.043,106.156c0.001,58.473-47.647,106.096-106.109,106.053
			C69.293,233.254,21.98,185.486,22.108,126.244C22.233,68.623,70.193,21.088,128.207,21.088z M53.767,121.114
			c0,12.274,0.034,24.549-0.026,36.822c-0.013,2.733,0.517,3.952,3.821,3.684c17.73-1.439,35.487-2.549,53.228-3.863
			c3.368-0.249,5.001,0.927,5.228,4.403c0.428,6.56,1.025,13.112,1.693,19.652c0.094,0.92-0.798,3.635,1.56,2.337
			c1.323-0.729,4.788,1.553,4.179-2.693c-0.805-5.614-1.107-11.301-1.562-16.962c-0.179-2.227-0.641-4.75,2.759-5.027
			c7.584-0.616,15.204-1.962,22.749-1.635c16.72,0.726,33.427,2.051,50.085,3.686c4.73,0.464,5.179-1.141,5.16-4.971
			c-0.11-23.051-0.052-46.103-0.055-69.154c-0.001-6.355,0.005-6.427-6.435-7.575c-4.488-0.8-8.813-1.615-11.129-6.314
			c-0.742-1.506-2.386-2.226-4.089-2.495c-10.038-1.586-20.026-3.59-30.292-2.962c-7.694,0.47-14.813,2.091-19.918,8.553
			c-0.693,0.877-2.074,2.358-2.718,0.593c-1.674-4.588-6.043-3.983-9.301-5.58c-6.966-3.415-14.26-4.34-21.852-3.377
			c-7.117,0.903-14.228,1.869-21.325,2.919c-1.579,0.234-3.769,0.213-4.388,1.842c-2.307,6.066-7.547,6.508-12.757,7.093
			c-3.38,0.379-4.766,1.914-4.699,5.55C53.901,97.461,53.764,109.289,53.767,121.114z"/>
		<path d="M105.924,139.292c1.592,0.385,2.151,0.532,2.715,0.654c4.772,1.037,6.555,3.616,6.281,8.561
			c-0.146,2.646-2.079,2.712-3.765,2.894c-4.311,0.466-8.644,0.74-12.972,1.038c-8.804,0.606-17.613,1.157-26.416,1.772
			c-3.606,0.252-3.594-1.109-2.311-3.98c3.316-7.421,9.045-10.353,17.838-9.602c-1.076-0.418-1.218-0.52-1.36-0.522
			c-10.757-0.124-10.827-0.123-10.863-11.066c-0.053-16.025-0.046-32.05,0.039-48.075c0.038-7.257,0.143-7.49,7.42-8.401
			c11.546-1.444,23.101-3.34,34.552,1.119c3.88,1.511,5.924,3.073,5.204,7.739c-1.938,12.56-3.45,25.187-5.072,37.794
			c-0.515,4.003-0.853,8.029-1.26,12.045C115.161,139.097,115.165,139.097,105.924,139.292z"/>
		<path d="M180.609,106.853c-0.002,9.421-0.209,18.849,0.088,28.26c0.144,4.538-1.768,5.298-5.648,4.801
			c-9.341-1.196-18.694-1.945-28.142-0.921c-4.95,0.537-9.818,0.938-14.013,3.984c-2.358,1.712-3.17,0.61-3.168-1.831
			c0.011-18.842-0.115-37.685,0.121-56.524c0.067-5.331,3.139-9.125,8.215-11.273c10.844-4.589,21.973-3.71,33.071-1.652
			c11.382,2.111,9.293,0.545,9.453,11.38C180.705,91,180.611,98.927,180.609,106.853z"/>
		<path d="M156.679,140.536c7.632-0.259,15.19,0.529,22.711,1.724c2.738,0.435,8.841,7.94,8.551,10.48
			c-0.236,2.068-1.937,1.572-3.125,1.499c-9.225-0.566-18.446-1.205-27.665-1.864c-7.563-0.541-15.107-1.551-22.716-0.712
			c-1.158,0.128-2.535,0.367-3.283-0.813c-0.86-1.358,0.062-2.568,0.757-3.709c3.44-5.655,9.314-5.954,14.927-6.542
			C150.084,140.258,153.396,140.536,156.679,140.536z"/>
		<path d="M72.773,110.552c0,8.365-0.278,16.742,0.104,25.089c0.229,4.992-2.076,8.537-4.879,12.073
			c-0.525,0.663-1.063,1.647-2.13,1.181c-0.989-0.432-0.802-1.515-0.812-2.364c-0.058-4.779-0.083-9.559-0.087-14.338
			c-0.013-13.443,0.158-26.889-0.103-40.327c-0.095-4.905,2.905-7.96,5.271-11.496c0.271-0.405,1.071-0.844,1.444-0.721
			c1.278,0.424,1.036,1.69,1.039,2.673c0.034,9.41,0.021,18.82,0.021,28.23C72.685,110.552,72.729,110.552,72.773,110.552z"/>
		<path d="M183.638,110.33c0-9.118-0.021-18.236,0.027-27.354c0.006-1.11-0.52-2.712,0.87-3.178c1.464-0.49,1.841,1.185,2.493,2.086
			c2.861,3.951,4.444,8.126,4.336,13.27c-0.327,15.539-0.146,31.089-0.176,46.635c-0.003,1.643-0.048,3.289-0.156,4.928
			c-0.058,0.879-0.165,1.937-1.181,2.187c-0.813,0.199-1.29-0.62-1.696-1.232c-2.468-3.721-4.918-7.256-4.687-12.234
			c0.388-8.353,0.106-16.737,0.106-25.108C183.595,110.33,183.616,110.33,183.638,110.33z"/>
		<path d="M126.666,100.647c0,9.585,0.001,18.985-0.001,28.386c-0.001,3.594,0.072,7.191-0.056,10.781
			c-0.047,1.302,0.833,3.428-1.456,3.561c-1.659,0.096-3.14-1.086-3.855-2.669c-0.41-0.909-0.492-2.044-0.452-3.066
			c0.465-11.973,2.026-23.832,3.78-35.67C124.711,101.399,124.956,100.804,126.666,100.647z"/>
	</g>
</g>
</svg>
