<?xml version="1.0" encoding="iso-8859-1"?>
<!-- Generator: Adobe Illustrator 23.0.1, SVG Export Plug-In . SVG Version: 6.00 Build 0)  -->
<svg version="1.1" id="GameCanvas" xmlns="http://www.w3.org/2000/svg" xmlns:xlink="http://www.w3.org/1999/xlink" x="0px" y="0px" viewBox="0 0 350 350" style="enable-background:new 0 0 350 350;" xml:space="preserve">
  <g id="Tiles">
    <g><rect x="2" y="2" style="fill:none;" width="47.29" height="47.29"/></g>
    <g><rect x="51.78" y="2" style="fill:none;" width="47.3" height="47.29"/></g>
    <g><rect x="101.57" y="2" style="fill:none;" width="47.29" height="47.29"/></g>
    <g><rect x="151.35" y="2" style="fill:none;" width="47.3" height="47.29"/></g>
    <g><rect x="201.14" y="2" style="fill:none;" width="47.29" height="47.29"/></g>
    <g><rect x="250.92" y="2" style="fill:none;" width="47.3" height="47.29"/></g>
    <g><rect x="300.71" y="2" style="fill:none;" width="47.29" height="47.29"/></g>
    <g><rect x="2" y="51.78" style="fill:none;" width="47.29" height="47.3"/></g>
    <g><rect x="51.78" y="51.78" style="fill:none;" width="47.3" height="47.3"/></g>
    <g><rect x="101.57" y="51.78" style="fill:none;" width="47.29" height="47.3"/></g>
    <g><rect x="151.35" y="51.78" style="fill:none;" width="47.3" height="47.3"/></g>
    <g><rect x="201.14" y="51.78" style="fill:none;" width="47.29" height="47.3"/></g>
    <g><rect x="250.92" y="51.78" style="fill:none;" width="47.3" height="47.3"/></g>
    <g><rect x="300.71" y="51.78" style="fill:none;" width="47.29" height="47.3"/></g>
    <g><rect x="2" y="101.57" style="fill:none;" width="47.29" height="47.29"/></g>
    <g><rect x="51.78" y="101.57" style="fill:none;" width="47.3" height="47.29"/></g>
    <g><rect x="101.57" y="101.57" style="fill:none;" width="47.29" height="47.29"/></g>
    <g><rect x="151.35" y="101.57" style="fill:none;" width="47.3" height="47.29"/></g>
    <g><rect x="201.14" y="101.57" style="fill:none;" width="47.29" height="47.29"/></g>
    <g><rect x="250.92" y="101.57" style="fill:none;" width="47.3" height="47.29"/></g>
    <g><rect x="300.71" y="101.57" style="fill:none;" width="47.29" height="47.29"/></g>
    <g><rect x="2" y="151.35" style="fill:none;" width="47.29" height="47.3"/></g>
    <g><rect x="51.78" y="151.35" style="fill:none;" width="47.3" height="47.3"/></g>
    <g><rect x="101.57" y="151.35" style="fill:none;" width="47.29" height="47.3"/></g>
    <g><rect x="151.35" y="151.35" style="fill:none;" width="47.3" height="47.3"/></g>
    <g><rect x="201.14" y="151.35" style="fill:none;" width="47.29" height="47.3"/></g>
    <g><rect x="250.92" y="151.35" style="fill:none;" width="47.3" height="47.3"/></g>
    <g><rect x="300.71" y="151.35" style="fill:none;" width="47.29" height="47.3"/></g>
    <g><rect x="2" y="201.14" style="fill:none;" width="47.29" height="47.29"/></g>
    <g><rect x="51.78" y="201.14" style="fill:none;" width="47.3" height="47.29"/></g>
    <g><rect x="101.57" y="201.14" style="fill:none;" width="47.29" height="47.29"/></g>
    <g><rect x="151.35" y="201.14" style="fill:none;" width="47.3" height="47.29"/></g>
    <g><rect x="201.14" y="201.14" style="fill:none;" width="47.29" height="47.29"/></g>
    <g><rect x="250.92" y="201.14" style="fill:none;" width="47.3" height="47.29"/></g>
    <g><rect x="300.71" y="201.14" style="fill:none;" width="47.29" height="47.29"/></g>
    <g><rect x="2" y="250.92" style="fill:none;" width="47.29" height="47.3"/></g>
    <g><rect x="51.78" y="250.92" style="fill:none;" width="47.3" height="47.3"/></g>
    <g><rect x="101.57" y="250.92" style="fill:none;" width="47.29" height="47.3"/></g>
    <g><rect x="151.35" y="250.92" style="fill:none;" width="47.3" height="47.3"/></g>
    <g><rect x="201.14" y="250.92" style="fill:none;" width="47.29" height="47.3"/></g>
    <g><rect x="250.92" y="250.92" style="fill:none;" width="47.3" height="47.3"/></g>
    <g><rect x="300.71" y="250.92" style="fill:none;" width="47.29" height="47.3"/></g>
    <g><rect x="2" y="300.71" style="fill:none;" width="47.29" height="47.29"/></g>
    <g><rect x="51.78" y="300.71" style="fill:none;" width="47.3" height="47.29"/></g>
    <g><rect x="101.57" y="300.71" style="fill:none;" width="47.29" height="47.29"/></g>
    <g><rect x="151.35" y="300.71" style="fill:none;" width="47.3" height="47.29"/></g>
    <g><rect x="201.14" y="300.71" style="fill:none;" width="47.29" height="47.29"/></g>
    <g><rect x="250.92" y="300.71" style="fill:none;" width="47.3" height="47.29"/></g>
    <g><rect x="300.71" y="300.71" style="fill:none;" width="47.29" height="47.29"/></g>
  </g>
  <path id="Grid" style="fill:black;" d="M0.5,0.5v349h349V0.5H0.5z M49.29,348H2v-47.29h47.29V348z M49.29,298.22H2v-47.3h47.29V298.22z M49.29,248.43H2
    v-47.29h47.29V248.43z M49.29,198.65H2v-47.3h47.29V198.65z M49.29,148.86H2v-47.29h47.29V148.86z M49.29,99.08H2v-47.3h47.29V99.08
    z M49.29,49.29H2V2h47.29V49.29z M99.08,348h-47.3v-47.29h47.3V348z M99.08,298.22h-47.3v-47.3h47.3V298.22z M99.08,248.43h-47.3
    v-47.29h47.3V248.43z M99.08,198.65h-47.3v-47.3h47.3V198.65z M99.08,148.86h-47.3v-47.29h47.3V148.86z M99.08,99.08h-47.3v-47.3
    h47.3V99.08z M99.08,49.29h-47.3V2h47.3V49.29z M148.86,348h-47.29v-47.29h47.29V348z M148.86,298.22h-47.29v-47.3h47.29V298.22z
     M148.86,248.43h-47.29v-47.29h47.29V248.43z M148.86,198.65h-47.29v-47.3h47.29V198.65z M148.86,148.86h-47.29v-47.29h47.29V148.86
    z M148.86,99.08h-47.29v-47.3h47.29V99.08z M148.86,49.29h-47.29V2h47.29V49.29z M198.65,348h-47.3v-47.29h47.3V348z M198.65,298.22
    h-47.3v-47.3h47.3V298.22z M198.65,248.43h-47.3v-47.29h47.3V248.43z M198.65,198.65h-47.3v-47.3h47.3V198.65z M198.65,148.86h-47.3
    v-47.29h47.3V148.86z M198.65,99.08h-47.3v-47.3h47.3V99.08z M198.65,49.29h-47.3V2h47.3V49.29z M248.43,348h-47.29v-47.29h47.29
    V348z M248.43,298.22h-47.29v-47.3h47.29V298.22z M248.43,248.43h-47.29v-47.29h47.29V248.43z M248.43,198.65h-47.29v-47.3h47.29
    V198.65z M248.43,148.86h-47.29v-47.29h47.29V148.86z M248.43,99.08h-47.29v-47.3h47.29V99.08z M248.43,49.29h-47.29V2h47.29V49.29z
     M298.22,348h-47.3v-47.29h47.3V348z M298.22,298.22h-47.3v-47.3h47.3V298.22z M298.22,248.43h-47.3v-47.29h47.3V248.43z
     M298.22,198.65h-47.3v-47.3h47.3V198.65z M298.22,148.86h-47.3v-47.29h47.3V148.86z M298.22,99.08h-47.3v-47.3h47.3V99.08z
     M298.22,49.29h-47.3V2h47.3V49.29z M348,348h-47.29v-47.29H348V348z M348,298.22h-47.29v-47.3H348V298.22z M348,248.43h-47.29
    v-47.29H348V248.43z M348,198.65h-47.29v-47.3H348V198.65z M348,148.86h-47.29v-47.29H348V148.86z M348,99.08h-47.29v-47.3H348
    V99.08z M348,49.29h-47.29V2H348V49.29z"/>
</svg>
