<?xml version="1.0" encoding="utf-8"?>
<svg version="1.1" xmlns="http://www.w3.org/2000/svg" xmlns:xlink="http://www.w3.org/1999/xlink" x="0px" y="0px" viewBox="0 0 1000 1000" enable-background="new 0 0 1000 1000" xml:space="preserve">
  <g><g transform="translate(0.000000,512.000000) scale(0.100000,-0.100000)"><path d="M394.1,4992.4c-134-36.4-247-157-275.7-298.7C103.1,4619,97.3,3566,101.1,876l5.7-3714.3l42.1-76.6c51.7-95.7,111-153.2,201-191.5c63.2-24.9,296.8-28.7,1949-28.7h1876.3v402.1v402.1h-813.7H2548V943V4217h2048.6h2048.6V2580V943h402.1h402.1v1828.4c0,1280.9-5.7,1857.1-21.1,1928c-30.6,143.6-157,270-300.6,300.6C6966.9,5032.6,522.4,5026.8,394.1,4992.4z M1743.9,943v-3273.9h-421.2H901.4V943V4217h421.2h421.2V943z"/><path d="M7047.3-106.2v-225.9l-157-45.9c-88.1-24.9-252.7-91.9-367.6-149.3l-206.8-103.4l-157,155.1l-155.1,155.1L5720.5-604L5439-885.4l155.1-155.1l155.1-155.1l-103.4-208.7c-57.4-114.9-124.4-279.5-149.3-365.7l-46-158.9h-225.9h-225.9v-402.1V-2733h225.9h225.9l46-157c24.9-88.1,91.9-252.7,149.3-365.7l105.3-208.7L5596-3619.4l-157-157l283.3-283.3l281.4-281.4l157,157l155.1,155.1l208.7-105.3c112.9-57.4,277.6-124.4,365.7-149.3l157-46v-225.9v-225.9h402.1h402.1v227.8v227.8l63.2,13.4c128.3,28.7,296.8,93.8,478.6,187.6l187.6,97.7l157-157l157-157l283.4,283.3l281.4,281.4l-157,157l-157,157l97.7,187.6c93.8,181.9,158.9,350.4,187.6,478.6l13.4,63.2h227.8H9900v402.1v402.1h-227.8h-227.8l-13.4,63.2c-28.7,128.3-93.8,296.8-187.6,478.7l-97.7,187.6l157,157l157,157L9178.2-604l-283.4,283.4l-155.1-155.1l-157-155.1l-235.5,114.9c-130.2,63.2-294.9,130.2-365.7,149.3L7851.4-334v225.9v227.8h-402.1h-402.1V-106.2z M7652.3-1534.5c360-95.7,620.3-428.9,620.3-796.5c0-530.3-518.8-932.4-1026.2-796.5c-492.1,130.2-758.2,681.6-545.7,1133.4c101.5,218.3,333.1,413.6,549.5,465.2C7363.2-1501.9,7543.2-1505.7,7652.3-1534.5z"/></g></g>
</svg>